PathFileType	4	(X/Y/Z)	Walk1_0-155.trc
DataRate	CameraRate	NumFrames	NumMarkers	Units	OrigDataRate	OrigDataStartFrame	OrigNumFrames
30	30	7	22	m	30	0	155
Frame#	Time	Hip			RHip			RKnee			RAnkle			RBigToe			RSmallToe			RHeel			LHip			LKnee			LAnkle			LBigToe			LSmallToe			LHeel			Neck			Head			Nose			RShoulder			RElbow			RWrist			LShoulder			LElbow			LWrist		
		X1	Y1	Z1	X2	Y2	Z2	X3	Y3	Z3	X4	Y4	Z4	X5	Y5	Z5	X6	Y6	Z6	X7	Y7	Z7	X8	Y8	Z8	X9	Y9	Z9	X10	Y10	Z10	X11	Y11	Z11	X12	Y12	Z12	X13	Y13	Z13	X14	Y14	Z14	X15	Y15	Z15	X16	Y16	Z16	X17	Y17	Z17	X18	Y18	Z18	X19	Y19	Z19	X20	Y20	Z20	X21	Y21	Z21	X22	Y22	Z22
1	0.03333333333333333	-2.575300850753651	0.806530606279406	0.38954632555108876	-2.5735445865705087	0.805210226666236	0.4724775609311381	-2.603074040369805	0.4462792176924926	0.5063637449140376	-2.6335743039895876	0.06524397678648983	0.5094305797094844	0.0	0.0	0.0	0.0	0.0	0.0	0.0	0.0	0.0	-2.5751849349214124	0.8115414238688126	0.305624334259912	-2.5565150724173598	0.45042198588687166	0.2929320515656441	-2.577627469463482	0.07249992271802742	0.2838216801110134	0.0	0.0	0.0	0.0	0.0	0.0	0.0	0.0	0.0	-2.5801740300399705	1.3892110608626125	0.39089475460543416	-2.4543759424118194	1.7365485486672563	0.43098749349118004	-2.4153511322754944	1.651797767960113	0.4095522685626669	-2.5762341473198282	1.3825801943550065	0.5786798613345998	-2.5666669904538546	1.0958920949732744	0.6298082780431074	-2.490409551513425	0.8552527748801276	0.6115305342143086	-2.5808181542438344	1.3980935673907304	0.20229290404179423	-2.553585145221683	1.1009399112409923	0.14735726445395825	-2.488848531263985	0.8554327004637586	0.16592376308108747
2	0.06666666666666667	-2.5753533864769826	0.8018009660682557	0.3874705442735157	-2.571286003888442	0.8006893382622725	0.4741965380930231	-2.602053786405731	0.44049380690646284	0.5054315151690835	-2.6345829315876643	0.06714350741374532	0.5091742764342613	0.0	0.0	0.0	0.0	0.0	0.0	0.0	0.0	0.0	-2.577779147236778	0.8063162638374962	0.2994421685047186	-2.5546453235368243	0.4494205029027231	0.2904239057654818	-2.5758521559792835	0.07162346621551459	0.28348829384571983	0.0	0.0	0.0	0.0	0.0	0.0	0.0	0.0	0.0	-2.578018711403802	1.387620785673009	0.3934857583861607	-2.451252001172113	1.7384591506914158	0.4246704955800977	-2.4171909787269854	1.6555777486943168	0.3849295839846757	-2.6077739778936473	1.4018543552409295	0.5378704924228174	-2.56613986943266	1.0947017423105883	0.6310134969979939	-2.492402357479334	0.8606314423786732	0.6129071336211713	-2.5770261084165504	1.3967972794535806	0.20401129252262057	-2.5492898441820047	1.0986617039213487	0.1440619994157966	-2.488095637259012	0.864161975507794	0.15972290603889883
3	0.1	-2.5735654791819043	0.8048898379434657	0.38506010104017024	-2.5717767609832864	0.8034668744237498	0.4724613130523852	-2.6018259141721267	0.4470347320783916	0.5024033871759347	-2.6343927087719887	0.06909429206463075	0.5109568756267615	0.0	0.0	0.0	0.0	0.0	0.0	0.0	0.0	0.0	-2.5735031650385443	0.8101601648340129	0.29646327900139846	-2.550635061704002	0.4500323721392797	0.28949275182738654	-2.5730421896701587	0.07073446409726554	0.2868580556985199	0.0	0.0	0.0	0.0	0.0	0.0	0.0	0.0	0.0	-2.5770165449014857	1.3899205547278912	0.3865350389173924	-2.4485971228944083	1.7375707276276795	0.42371914021485657	-2.415668797634329	1.6538957910062775	0.36766367868015254	-2.606378253082659	1.4015824730890265	0.5324614908214876	-2.5623478365153227	1.096460789663812	0.6244041690097221	-2.4905334342393646	0.8578952143654224	0.6116926791533152	-2.5759682332208227	1.3978388596177451	0.19756650572152518	-2.5487402837182302	1.0959885168996224	0.14258216417947123	-2.486710091600855	0.8570941601438937	0.1605609295393695
4	0.13333333333333333	-2.573508182720737	0.8036731984627354	0.38129712385972925	-2.5733213091714315	0.8018621269465024	0.46963592991894354	-2.6011641884717815	0.44643262487277247	0.5029582641092067	-2.574295251803194	0.07943194884487899	0.5108268235454999	0.0	0.0	0.0	0.0	0.0	0.0	0.0	0.0	0.0	-2.571787147578757	0.8091997306620974	0.29160402537606256	-2.5466772315021395	0.448985751693388	0.28862623724962244	-2.569609361650327	0.07392720476006018	0.28580365458015017	0.0	0.0	0.0	0.0	0.0	0.0	0.0	0.0	0.0	-2.577001562894963	1.389587861512021	0.38551507997925444	-2.446496619446236	1.7381368109209028	0.42407006288975624	-2.41257575040235	1.6522750624315412	0.36604946895096285	-2.6046787548701933	1.4001086837503782	0.5318520906335853	-2.561655158210425	1.0950543345084665	0.6234846360841996	-2.489520067932346	0.8552587135281698	0.6108855635013729	-2.5761193704010417	1.3992738790261814	0.19507234985089184	-2.547202784402502	1.0971519736119395	0.14126174902392566	-2.48520284726042	0.8607809688207451	0.15754453968694154
5	0.16666666666666666	-2.5742996507311893	0.8016986911011937	0.3786560401820507	-2.5737139413304284	0.7998353675161446	0.4670295863394939	-2.6029402790858245	0.44202219006959115	0.49919457912702203	-2.5754180802969633	0.07977799611183732	0.5103111060149765	0.0	0.0	0.0	0.0	0.0	0.0	0.0	0.0	0.0	-2.5728293856655937	0.8074712568673164	0.2888892345581925	-2.5448181144072364	0.45110702953382215	0.2858006155995242	-2.5689734149191383	0.07117076390759888	0.2881548894354831	0.0	0.0	0.0	0.0	0.0	0.0	0.0	0.0	0.0	-2.5771885080992156	1.3866840059210581	0.3807840941738028	-2.4453692119641484	1.7383239859334656	0.4208912387374886	-2.4121847793502993	1.6538254821888365	0.36245966692301007	-2.6035012075012487	1.4003529151697545	0.5303829193308457	-2.5603700021324274	1.0975517401615733	0.6208038562459725	-2.4918720517059376	0.8567440144710424	0.6092504134434777	-2.5751111931543886	1.395948594378575	0.18929063293050183	-2.548490531601669	1.0947501395849708	0.14002589664812462	-2.4862442853025906	0.8579712557383148	0.157289889620006
6	0.2	-2.572397343269348	0.8021546201688255	0.3775348427846817	-2.5727458431504036	0.8005916996082572	0.4641191481697167	-2.604820286101871	0.44343427413001146	0.49929177831573557	-2.58476587422852	0.07703007954154564	0.5078730749535171	0.0	0.0	0.0	0.0	0.0	0.0	0.0	0.0	0.0	-2.570185519766406	0.8075231807671243	0.2896284824855754	-2.5442239319951634	0.45005025871752646	0.2842055600826968	-2.571909714686505	0.07408247900691149	0.28697436124784176	0.0	0.0	0.0	0.0	0.0	0.0	0.0	0.0	0.0	-2.5742598578974407	1.3880972992889495	0.37785205828912616	-2.444860464371883	1.7379109086568518	0.4200930862360852	-2.410302799517132	1.653528531037634	0.3641912280157413	-2.60163389798682	1.3998946527883076	0.5246734515902248	-2.559173300497883	1.0960765658484075	0.6208980335197437	-2.4893354483282604	0.8574439993417505	0.6098810618377408	-2.5723540697894927	1.3973253774023735	0.18940752746861625	-2.5467172254770944	1.0946097512878192	0.13519448140229098	-2.4865452715173535	0.8562597998794289	0.15858462726710276
7	0.23333333333333334	-2.5727899072424787	0.8011573341130127	0.3771236324482416	-2.5729098596598226	0.7997580342691	0.4646323817561433	-2.6009744485126687	0.44401016806504173	0.49718333356059374	-2.583444837015865	0.07780697595281218	0.5096830056856537	0.0	0.0	0.0	0.0	0.0	0.0	0.0	0.0	0.0	-2.570698539286192	0.8065419709196601	0.28832982842298766	-2.5440386447425993	0.44667829571721807	0.2843882891749352	-2.5732005115939853	0.07022564318606585	0.28480694955156705	0.0	0.0	0.0	0.0	0.0	0.0	0.0	0.0	0.0	-2.571589080383069	1.3877953473578983	0.3746866118823814	-2.4429190831387566	1.7374597988442462	0.4165198214518814	-2.40857780161495	1.6533092286657862	0.3507249298842965	-2.599186899977315	1.3998093229258273	0.5170446748431856	-2.557000484719411	1.0955527367114395	0.6167235621168622	-2.488833445467763	0.8576339013405225	0.6074228782921621	-2.5711861090468084	1.3963379480402536	0.1854031944480281	-2.546072263918979	1.094968805105412	0.13366968364789072	-2.48751522195996	0.8577150687770114	0.15033326366504796
